<svg xmlns="http://www.w3.org/2000/svg" xml:space="preserve" width="512" height="512">
  <path
    d="M404.938 151.13c-.045-.114-.094-.226-.133-.343-.573-1.745-.692-4.21-1.838-5.043-1.261-.915-2.436 1.66-3.948 2.22-2.491.925-5.006 1.751-7.2-.38-2.15-2.09-1.974-4.964-1.264-7.645.817-3.081 3.188-4.67 5.924-5.027 2.519-.326 4.168 1.926 5.76 3.654 1.053 1.146 1.528 1.121 2.256-.18.832-1.488 1.7-2.965 2.684-4.34 4.372-6.114 11.733-7.455 17.919-3.32 6.094 4.075 8.05 11.743 4.815 18.874-3.347 7.372-9.799 10.236-16.741 7.396-2.717-1.111-5.148-2.8-7.565-4.503-.569-.26-.322-.979-.669-1.362z"
    style="fill:#5fbc63;" />
  <path
    d="M463.528 205.609c1.654-.104 3.284-.056 4.762.903.525.287 1.162.038 1.675.396.63.393 1.264.779 1.927 1.111.26.163.473.38.63.656.16.593.247 1.222.49 1.772 3.793 8.597 2.91 16.088-4.47 22.082-.136.11-.09.473-.13.717-.57.907-1.496 1.152-2.38 1.477-3.1.944-6.203 1.072-9.309.032-1.543-.623-3.307-.928-3.874-3.001-1.182-1.977-2.445-3.906-3.534-5.941-3.02-5.64-2.43-10.214 1.85-14.796 1.47-1.575 2.997-3.087 4.499-4.628 2.455-2.188 5.213-.875 7.864-.78zm8.225-42.39c10.42-.534 16.646 5.839 15.448 15.812-.75 6.243-3.972 10.286-9.497 11.917-5.732 1.693-11.853-.286-15.057-4.868-3.286-4.696-3.537-10.814-.593-16.117 1.194-2.148 2.7-4.031 4.656-5.45 1.43-1.56 3.405-.672 5.043-1.294z"
    style="fill:#5ebb62;" />
  <path
    d="M451.028 172.12c-2.102.501-3.973.703-2.952 4.233 2.07 7.144 1.195 8.367-5.76 10.003-.751.177-1.29.46-1.412 1.332-1.825-.15-3.287-1.189-4.746-2.232 1.898-2.767-.207-5.451-.204-8.184.001-.95-.949-.879-1.604-.388-3.868 2.896-8.341 2.496-12.704 2.71-.607-.329-.328-1.14-.744-1.57-1.338-1.596-2.035-3.572-2.721-5.52-2.044-5.805-.42-10.166 4.727-12.95 4.678-2.532 8.84-1.284 11.59 3.495 1.16 2.018 2.223 4.218 2.292 6.536.104 3.511 1.584 4.142 4.27 3.084 1.887-.742 4.173.589 5.81-1.333 1.514-.512 2.94-.497 4.158.784z"
    style="fill:#61bd65;" />
  <path
    d="M436.158 185.456c2.048-.395 3.406.896 4.746 2.232 5.905 8.344 3.577 17.139-5.017 18.934-4.463.931-9.286-2.354-11.038-7.52-1.557-4.585.37-9.61 4.66-11.85 2.078-1.085 4.285-1.826 6.65-1.796zm35.595-22.237c-1.223 2.485-3.415.625-5.043 1.293-2.418-1.6-5.26-2.337-7.428-4.485-3.75-3.718-4.847-6.988-3.367-10.748 1.595-4.051 6.48-7.123 10.703-6.73 6.585.615 10.013 6.483 8.04 13.285-.752 2.597-3.1 4.412-2.905 7.385zm-75.3-4.646c.181 2.016 1.157 3.708 1.944 5.48 2.171 4.895 1.781 7.015-1.882 10.781-.992 1.02-1.9 2.132-2.846 3.202-.161.32-.21.746-.646.818-2.58-.147-5.186-.632-7.664.64-.554.574-1.232.338-1.876.333-.763-.385-.516-1.223-.72-1.858-.88-3.17-2.156-6.179-2.39-9.593-.384-5.604 3.463-10.059 8.412-9.824 2.555-.494 5.112-.532 7.667.021z"
    style="fill:#60bc64;" />
  <path
    d="m452.85 231.755 3.586 2.146c1.276 4.554 3.32 9.023 1.317 13.939-.184.451-.339.912-.582 1.334a1.88 2.016 0 0 1-.799.7c-3.312.937-6.426 2.654-10.055 2.265-4.344-.465-6.831-2.904-7.69-8.074-.836-5.032.767-8.673 4.702-10.42 3.037-1.348 6.307-1.487 9.52-1.89z"
    style="fill:#62bd65;" />
  <path
    d="M501.648 202.633c-4.237 4.345-9.325 4.101-14.553 3.111-.585-.357-.362-1.048-.563-1.564-.507-1.378-1.088-2.732-1.508-4.14-2.08-6.978-.32-11.433 5.443-13.893 4.685-2.001 9.488.666 12.133 6.74 1.976 5.167 1.796 7.01-.952 9.746z"
    style="fill:#5fbc63;" />
  <path
    d="M468.072 276.592c3.106 6.913 1.433 12.497-4.486 14.984-5.473 2.301-11.4-.747-12.95-6.698-1.071-4.113.045-7.593 2.943-10.388 2.91-2.805 6.23-3.638 9.917-1.856 1.151.556 2.262 1.208 3.39 1.815 1 .329 1.15 1.2 1.186 2.143zm-11.7-26.718.163-1.089c2.632-1.696 5.54-1.728 8.472-1.623 1.886.13 3.873-.375 5.565.993 3.558 3.06 4.996 7.09 4.723 11.899.22.309.244.64.1.991-1.276 1.035-2.485 2.137-3.474 3.512-1.1 1.529-2.532 2.42-4.405 2.269-3.597.023-7.271.297-9.76-3.373-1.587-1.543-2.53-3.266-1.356-5.58-.513-2.665-.434-5.331-.028-7.999z"
    style="fill:#5ebb62;" />
  <path
    d="M420.902 178.023c.612.325.705.934.745 1.571 3.998 7.06 2.285 11.4-5.197 13.152-.661.155-1.335.26-2.13.413.328 1.222.668 2.256.875 3.32.36 1.843-.048 3.434-1.545 4.582-1.441 1.106-2.86.791-4.175-.193-1.784-1.334-3.485-2.518-5.492-.387-1.185 1.26-2.573 2.318-4.305 1.25-1.873-1.153-2.064-3.171-1.835-5.211.134-1.204.518-2.375.789-3.56.736-.72 1.495-.57 2.264-.067 3.521.662 6.993 1.432 10.606.2 1.467-.502 2.142-.764 1.118-2.328-1.477-2.26-1.717-4.814-1.556-7.466-.04-1.34.188-2.53 1.518-3.097 2.384-2.439 5.778-.435 8.32-2.179z"
    style="fill:#65be69;" />
  <path
    d="M478.288 244.373c1.688-.837 3.486-1.252 5.562-1.546-1.12-2.483-2.106-4.919-1.245-7.672.91-2.912 3.173-4.161 5.689-2.953 2.732 1.312 2.012 3.628 1.078 5.645-.806 1.743-2.08 3.236-3.269 5.022.948.958 2.106 1.849 2.926 3.013 2.436 3.461 2.015 6.922-.947 9.02-3.47 2.456-6.662 1.76-8.942-1.902-1.309-2.1-1.817-4.533-2.578-6.862-.163-1.419.416-2.004 1.726-1.765z"
    style="fill:#62bd65;" />
  <path
    d="M463.528 205.609c-2.612.361-5.335-.55-7.864.78-.89-1.616-2.315-.634-3.466-.725-2.814-.227-4.937-1.438-5.941-4.326-.905-2.6-.828-5.118 1.173-7.244 2.033-2.161 4.27-3.52 7.15-1.975 1.062.57 1.683.688 2.491-.58.991-1.557 2.663-1.984 4.35-1.35.741.277.665 1.217.61 1.969-.184 2.538-2.163 2.11-3.943 2.536 1.925 3.493.872 6.672-1.11 9.865 2.27 1.27 4.6-.036 6.55 1.05z"
    style="fill:#63be67;" />
  <path
    d="m456.4 257.871 1.356 5.58c-1.194 1.813-2.26 3.742-3.61 5.407-2.127 2.618-5.345 3.139-7.88 1.533-2.648-1.678-4.248-6.303-3.292-9.51.917-3.07 3.367-4.43 6.961-4.068 2.18.22 4.195 1.538 6.465 1.058z"
    style="fill:#6dc170;" />
  <path
    d="m472.522 208.675-.832-.056c-.523-.773-1.429-.928-2.089-1.481l-1.311-.626c1.743-1.072.803-2.918.997-4.376.78-5.84 2.7-7.999 7.284-7.783 3.724.177 5.394 2.548 5.714 8.11.145 1.352.98 2.864-.766 3.771-2.663 2.24-5.78 2.549-8.997 2.441z"
    style="fill:#64bf67;" />
  <path
    d="M478.288 244.373c-.815.318-1.403.892-1.723 1.764-2.09.357-4.717-1.123-5.992 2.016h-5.946c.749-1.84.988-3.602.325-5.646-.968-2.983.136-5.823 1.225-8.573.596-.79 1.45-.608 2.235-.687 9.113.711 9.139.74 9.876 11.126z"
    style="fill:#65bf69;" />
  <path
    d="M406.4 158.55c4.702-.009 6.933 1.535 7.552 5.221.661 3.932-.935 7.17-4.105 8.407-2.682 1.046-5.014.208-7.08-1.607-2.107-1.85-2.037-4.29-1.21-6.785.58-1.745 1.265-3.452 1.904-5.174.968-.66 1.951-.475 2.94-.062z"
    style="fill:#60bd64;" />
  <path
    d="M484.639 227.324c-3.801-.018-6.512-2.947-6.512-7.036 0-4.037 2.779-7.096 6.495-7.152 3.89-.059 6.702 3.04 6.627 7.304-.073 4.117-2.745 6.901-6.61 6.884z"
    style="fill:#62be66;" />
  <path
    d="M442.645 157.1c-3.725-.095-6.9-3.371-6.777-6.99.123-3.59 3.748-6.9 7.498-6.848 3.51.05 5.888 3.035 5.832 7.318-.052 3.954-2.73 6.618-6.553 6.52z"
    style="fill:#60bc64;" />
  <path
    d="M451.028 172.12c-1.398-.184-2.892.212-4.157-.785-.4-.604-.844-1.18-1.193-1.817-2.174-3.978-1.535-8.176 1.517-10.119 3.042-1.936 7.888-.146 9.778 3.611 2.005 3.984-.91 8.449-5.945 9.11z"
    style="fill:#60bd64;" />
  <path
    d="m400.896 192.894-2.264.067c-2.715.817-5.155-.488-6.992-2.081-2.106-1.827-1.763-4.89-.951-7.487.503-1.612 1.536-3.033 2.333-4.539l.646-.819c.675 1.224 1.876.644 2.819.91 3.827 1.085 5.237 2.898 5.52 7.305-.106 1.041.132 2.151-.534 3.08z"
    style="fill:#64be67;" />
  <path
    d="M432.658 214.404c.009-3.158 1.433-4.38 4.517-3.722 1.965.42 3.818 1.537 5.27-1.335.643-1.27 2.537-.966 3.835-.292.672.35 1.544.866 1.431 1.89-.09.805-.854 1.143-1.498 1.359-2.948.99-5.507 2.334-6.742 5.767-.526 1.461-1.991 2.04-3.532 1.45-2.227-.853-3.266-2.619-3.281-5.117z"
    style="fill:#68c06b;" />
  <path
    d="M412.582 180.203c-.655.947-.46 2.375-1.518 3.097-2.684.463-5.415.663-6.984-2.284-1.025-1.926-.881-4.193.719-5.778 1.71-1.692 3.599-1.084 5.325.27 1.488 1.164 2.102 2.85 2.458 4.695z"
    style="fill:#79c67c;" />
  <path
    d="m475.24 260.91.055-.856c.22.064.434.15.64.256 1.617 2.174.38 5.34 2.242 7.43-1.024.674-2.543.495-2.216 2.852.521 3.752-.719 4.912-4.351 5.293-1.188.124-2.544-.56-3.54.708l-1.186-2.143c1.629-1.36.153-3.732 1.47-5.194.147-.19.268-.423.452-.558 3.044-2.214 5.17-4.78 6.434-7.787z"
    style="fill:#6bc16e;" />
  <path
    d="m406.4 158.55-2.94.063-7.008-.04-7.669-.02c.82-.665 1.79-.536 2.687-.443 3.011.312 5.353.194 5.456-4.249.055-2.352 2.109-3.3 4.42-3.058 1.192.127 2.332 1.11 3.593.328.51.29.653.79.667 1.362-.777 2.177-3.314 4.619.795 6.057zm52.71 24.705c.008 2.666-2.108 4.655-4.86 4.573-2.784-.082-3.958-1.979-3.905-4.593.055-2.7 1.645-4.275 4.209-4.433 2.507-.154 4.55 1.9 4.557 4.453zm45.383 8.961c1.063-1.926 2.619-2.78 4.616-2.026 2.106.796 2.828 2.792 2.885 4.964.083 3.066-1.483 4.228-4.725 3.74-3.24-1.999-3.754-3.237-2.776-6.678z"
    style="fill:#6ac16d;" />
  <path
    d="M383.254 179.495h2.104c-2.494 1.106-1.111 3.298-1.229 5.069.35 1.898-.097 2.969-2.12 2.242-.77-.277-1.604-.067-2.345-.448-2.322-.317-3.281-2.173-3.774-4.239-.32-1.343.519-2.31 1.832-2.633 1.843-.532 3.688-.557 5.532.009z"
    style="fill:#6ac06d;" />
  <path
    d="M478.178 267.74c-1.453-.004-2.358-.53-2.26-2.343.092-1.69.019-3.392.018-5.087.902.1 1.836.074 2.7.326 1.765.516 3.413 1.622 3.34 3.692-.08 2.237-1.663 3.38-3.798 3.411z"
    style="fill:#66bf6a;" />
  <path
    d="M475.24 260.91c-.201 2.39 1.071 5.424-.667 7-1.44 1.307-4.212.257-6.218 1.345-.184-.847-.017-1.836-.839-2.43 2.065-.652 3.564-2.1 4.688-3.99.732-1.231 1.596-2.059 3.036-1.924z"
    style="fill:#c5e5c6;" />
  <path
    d="M401.473 189.33c-.036-1.068-.346-2.193.533-3.08 1.416.604 2.301-1.166 3.742-.893 1.414.268 2.825.412 3.264 2.096.381 1.468-.45 2.606-1.48 3.468-1.204 1.01-2.31.437-3.456-.311-.805-.528-.997-2.63-2.603-1.28z"
    style="fill:#7ac67d;" />
  <path
    d="M504.493 192.216c-.337 2.83 1.27 4.73 2.776 6.679-.181 1.279 1.414 2.503.104 3.818-1.623-.731-3.082-.365-4.43.758l-1.296-.837c2.462-3.008.501-6.514.952-9.747z"
    style="fill:#d6ecd7;" />
  <path
    d="M481.519 206.233c.78-1.132.595-2.491.766-3.768.66 2.724 1.887 3.83 4.246 1.715l.563 1.564c0 .122.014.244 0 .364-.224 1.88 1.056 4.714-1.688 5.153-2.496.4-2.784-2.241-3.235-4.26-.065-.294-.428-.513-.652-.768z"
    style="fill:#74c577;" />
  <path
    d="M379.663 186.358c1.388-.886 4.029 1.819 4.465-1.794.657.918.481 2.385 1.917 2.831 1.266.395 1.862 1.512 1.305 2.93-.445 1.136-.987 2.43-2.339 2.443-1.344.012-1.952-1.187-2.352-2.386-.574-1.722-.875-3.64-2.996-4.024z"
    style="fill:#8acc8c;" />
  <path
    d="M444.51 224.203c-.435 1.07-.55 3.54-2.051 3.418-1.897-.155-2.15-2.69-2.367-4.462-.223-1.826 1.232-2.247 2.565-2.19 1.61.07 2.14 1.229 1.852 3.234z"
    style="fill:#7cc77f;" />
  <path
    d="M464.258 197.082c1.382.311 1.728 1.536 1.694 2.544-.057 1.677-.982 3.305-2.497 3.551-1.24.201-1.9-1.521-1.888-2.657.016-1.758 1.442-2.638 2.69-3.438z"
    style="fill:#80c983;" />
  <path
    d="M495.96 211.231c.058 1.27-.61 1.94-1.662 1.743-1.29-.243-3.153-.253-3.345-1.918-.155-1.356 1.391-2.153 2.615-2.37 1.701-.297 1.937 1.318 2.391 2.545z"
    style="fill:#78c67b;" />
  <path
    d="M389.054 150.47c1.254.709 3.142 1.062 3.145 2.905.002 1.343-1.57 1.595-2.724 1.535-1.686-.087-1.936-1.471-1.963-2.907-.02-1.042.47-1.602 1.542-1.534z"
    style="fill:#75c578;" />
  <path
    d="M502.944 203.47c.17-1.058.081-2.344 1.582-2.326 1.175.014 2.65-.52 2.847 1.568-1.076 2.938-2.534 3.317-4.429.758z"
    style="fill:#6fc272;" />
  <path d="M307.37 383.655c-2.378-1.09-2.109-2.272-.105-3.515.45 1.157.354 2.333.105 3.515z"
    style="fill:#00c4ee;stroke-dasharray:none;stroke:none" />
  <path d="m383.254 179.495-5.534-.01c1.392-1.61 3.663.149 5.041-1.516.51.38.536.94.493 1.525z" style="fill:#a5d9a6;" />
  <path
    d="M199.062 332.933c-1.386-6.508-2.11-13.075-2.533-19.725-.747-11.726.07-23.442-.431-35.159 0-7.857.125-15.717-.027-23.572-.283-14.582-10.571-27.048-26.249-31.805-12.626-3.832-25.442-3.413-38.262-1.294-7.446 1.232-14.877 2.683-21.502 6.764-5.782 3.563-7.077 7.48-4.857 14.049.976 2.888 2.498 5.447 4.255 7.86 4.313 5.926 6.44 6.455 13.032 3.383 7.617-3.549 15.619-5.47 23.939-5.427 10.591.055 15.87 4.59 16.735 13.84.435 4.64-.851 6.625-5.305 7.165-7.018.853-14.103 1.155-21.102 2.133-10.18 1.42-19.756 4.899-27.336 12.346-12.257 12.046-13.687 27.156-9.592 43.164 2.866 11.202 10.43 17.552 21.269 19.936 14.23 3.131 26.82.186 37.828-10.046 4.986-4.634 5.288-4.411 7.681 2.058 1.44 3.894 3.53 6.938 7.823 7.155 6.4.327 12.77-.206 18.903-2.252 5.335-1.78 6.954-4.83 5.73-10.573zm-36.494-33.624c-.088 11.833-10.99 21.771-22.4 20.419-4.177-.496-7.183-3.259-8.268-7.598-1.315-5.257.54-10.895 4.81-14.068 5.705-4.239 12.36-5.168 19.098-5.482 6.751-.313 6.81-.138 6.76 6.729z"
    style="fill:#00c4ee;" />
  <path d="M469.601 207.138c1.11-.176 2.283-.458 2.09 1.481-.952-.079-1.745-.416-2.09-1.481z" style="fill:#f4faf4;" />
  <path
    d="M420.112 257.19c.168 25.503-.282 51.006.193 76.514.13 6.927-1.494 8.826-8.097 9.678-5.766.743-11.576.802-17.335-.13-4.633-.748-5.98-2.454-5.981-7.244-.012-34.95.037-69.901-.06-104.851-.012-4.48 1.635-7.839 4.594-10.802.717-.718 1.48-.56 2.247-.558 5.335.012 10.671.092 16.006.079 1.258-.003 2.198.1 2.571 1.646.225.933.923 1.809 1.93 1.893 3.925.327 3.954 3.203 3.944 6.229-.03 9.18-.012 18.364-.012 27.545zM48.015 347.781c-10.92-.665-22.03-1.316-32.741-4.748-3.327-1.066-6.518-2.427-9.351-4.497-8.783-6.415-7.575-20.879 2.168-25.868 3.29-1.684 6.453-1.177 9.594.621 9.545 5.466 19.752 7.812 30.73 6.172 3.339-.498 6.525-1.541 7.328-5.343.758-3.59-1.167-6.249-3.858-8.355-3.616-2.83-7.978-4.18-12.155-5.871-5.69-2.302-11.394-4.553-16.712-7.673-12.445-7.3-18.514-18.286-18.156-32.528.37-14.784 6.678-26.542 20.268-33.153 16.112-7.837 33.039-8.85 50.017-3.071 13.555 4.615 20.256 16.777 17.1 29.77-1.381 5.684-4.728 9.724-10.417 11.576-3.974 1.295-7.994 2.41-12.231 2.352-4.377-.059-5.297-.884-5.777-5.134-1.329-11.76-11.765-16.908-21.845-10.777-5.639 3.43-6.506 9.6-1.948 14.396 3.548 3.734 8.247 5.475 12.952 7.159 7.845 2.808 15.81 5.358 22.895 9.894 12.739 8.155 18.108 20.006 16.04 34.741-2.127 15.163-11.56 24.25-26.145 28.206-5.741 1.56-11.645 1.925-17.756 2.131zM307.37 337.905c-.324 4.082-2.308 6.605-6.35 7.333-6.687 1.206-13.436.532-20.095-.238-4.312-.499-5.862-3.23-6.143-8.672-.762-14.738-.477-29.481-.212-44.226.17-9.43.221-18.864.204-28.297-.021-11.593-7.785-17.353-18.464-13.807-7.673 2.547-12.804 9.636-12.904 19.113-.209 19.825-.725 39.661.575 59.473.246 3.754-.146 7.465-.967 11.148-.723 3.24-2.666 5.017-5.66 5.612-7.052 1.401-14.116.336-21.111-.41-4.183-.444-5.727-3.322-5.725-8.52.008-16.934.038-33.867.106-50.8.064-15.962-.067-31.904-2.064-47.775-1.283-10.192.132-12.118 9.95-14.038a93.007 93.007 0 0 1 10.678-1.445c5.084-.393 8.563 2.122 10.825 6.853.939 1.964 1.244 5.216 3.222 5.437 1.452.163 3.23-2.394 4.792-3.82 11.932-10.892 25.594-13.41 40.592-8.95 6.09 1.81 11.199 5.219 14.265 11.303 1.321 2.623 2.82 2.973 5.177.985 6.956-5.87 14.105-11.427 23.224-13.266 6.337-1.278 12.655-1.636 18.966-.023 12.981 3.32 21.13 13.66 22.646 28.312.9 8.7.18 17.375.156 26.067-.052 18.369-.643 36.754.768 55.108.155 2.022-.081 4.107-.354 6.13-.802 5.961-3.731 8.821-9.53 8.906-5.66.081-11.298 1.185-16.997.066-4.143-.814-6.756-3.004-7.532-7.338-.34-1.89-.731-3.845-.616-5.738 1.078-17.64.16-35.304.692-52.947.178-5.908.968-11.778.095-17.72-1.572-10.705-9.33-15.534-19.008-11.455-9.08 3.827-12.975 11.47-12.978 21.19-.007 18.862-.58 37.733.344 56.585.108 2.222-.264 4.33-.674 6.46-.607 1.158-.908 2.303.107 3.404z"
    style="fill:#00c4ee;" />
</svg>